<?xml version="1.0" standalone="yes"?>

<svg version="1.1" viewBox="0.0 0.0 352.21522309711287 341.1128608923884" fill="none" stroke="none" stroke-linecap="square" stroke-miterlimit="10" xmlns="http://www.w3.org/2000/svg" xmlns:xlink="http://www.w3.org/1999/xlink"><clipPath id="p.0"><path d="m0 0l352.2152 0l0 341.11285l-352.2152 0l0 -341.11285z" clip-rule="nonzero"></path></clipPath><g clip-path="url(#p.0)"><path fill="#000000" fill-opacity="0.0" d="m0 0l352.2152 0l0 341.11285l-352.2152 0z" fill-rule="nonzero"></path><path fill="#000000" fill-opacity="0.0" d="m38.986877 30.71916l270.70865 0l0 278.4882l-270.70865 0z" fill-rule="nonzero"></path><path stroke="#000000" stroke-width="16.0" stroke-linejoin="round" stroke-linecap="butt" d="m38.986877 30.71916l270.70865 0l0 278.4882l-270.70865 0z" fill-rule="nonzero"></path><path fill="#000000" fill-opacity="0.0" d="m81.50656 63.317585l196.28348 0l0 224.66142l-196.28348 0z" fill-rule="nonzero"></path><path fill="#000000" d="m100.14542 140.66861c-1.4551315 -11.856674 3.322197 -23.594093 12.304787 -30.231659c8.982597 -6.637558 20.595116 -7.0111923 29.909966 -0.96234894l0 0c3.2994232 -6.894455 9.338547 -11.654617 16.290558 -12.840576c6.9520264 -1.1859512 14.000351 1.3416061 19.012909 6.8181l0 0c2.8107758 -6.250847 8.3298645 -10.450623 14.598785 -11.109009c6.2689056 -0.65838623 12.400421 2.3178024 16.21872 7.8724365l0 0c5.078186 -6.625496 13.157654 -9.41507 20.742386 -7.161682c7.584732 2.253395 13.3124695 9.145035 14.704788 17.692894l0 0c6.2213593 1.8817062 11.40361 6.665184 14.207855 13.11454c2.8042297 6.4493637 2.9553528 13.931953 0.41436768 20.514519l0 0c6.1266785 8.841095 7.5599365 20.621872 3.7648926 30.945877c-3.795044 10.324005 -12.248184 17.640152 -22.20485 19.21814c-0.07017517 9.689789 -4.8626404 18.580994 -12.530136 23.246506c-7.667511 4.665512 -17.012726 4.3767853 -24.433517 -0.7548981c-3.160904 11.605148 -12.057999 20.14412 -22.847336 21.92772c-10.789322 1.7835999 -21.536682 -3.5079346 -27.598755 -13.588425c-7.4308014 4.968643 -16.347168 6.3999634 -24.737724 3.9710999c-8.390564 -2.4288788 -15.548523 -8.513336 -19.859169 -16.880829l0 0c-7.5932846 0.98532104 -14.934959 -3.3769531 -18.381401 -10.921829c-3.4464493 -7.5448914 -2.264 -16.66629 2.960495 -22.83731l0 0c-6.773773 -4.420624 -10.230171 -13.192657 -8.566818 -21.741821c1.663353 -8.549164 8.069542 -14.938171 15.877975 -15.835403z" fill-rule="nonzero"></path><path fill="#000000" d="m140.73288 257.60104c0 2.261322 -1.8331604 4.0944824 -4.0944824 4.0944824c-2.261322 0 -4.0944824 -1.8331604 -4.0944824 -4.0944824c0 -2.261322 1.8331604 -4.0944824 4.0944824 -4.0944824c2.261322 0 4.0944824 1.8331604 4.0944824 4.0944824z" fill-rule="nonzero"></path><path fill="#000000" d="m146.82294 252.72495c0 4.522644 -3.666336 8.188965 -8.18898 8.188965c-4.522644 0 -8.18898 -3.6663208 -8.18898 -8.188965c0 -4.522644 3.666336 -8.18898 8.18898 -8.18898c4.522644 0 8.18898 3.666336 8.18898 8.18898z" fill-rule="nonzero"></path><path fill="#000000" d="m156.01465 240.26999c0 6.783966 -5.4994965 12.283463 -12.283463 12.283463c-6.783966 0 -12.283463 -5.4994965 -12.283463 -12.283463c0 -6.783966 5.4994965 -12.283463 12.283463 -12.283463c6.783966 0 12.283463 5.4994965 12.283463 12.283463z" fill-rule="nonzero"></path><path fill="#000000" fill-opacity="0.0" d="m103.45879 180.84167l0 0c-3.6931458 0.32055664 -7.385887 -0.6257477 -10.58242 -2.7118378m19.919289 32.388687c-1.4850845 0.6554718 -3.0417786 1.0918732 -4.629936 1.2979584m44.524673 12.961914l0 0c-1.1169739 -1.8573761 -2.0521545 -3.842163 -2.789627 -5.9205017m54.37845 -8.842987c-0.1642456 2.2030334 -0.5376129 4.3805847 -1.1138763 6.4963226m23.262375 -46.634995l0 0c8.372955 4.517929 13.656845 13.963379 13.582138 24.279343m18.4552 -50.138504c-1.3559875 3.512741 -3.426056 6.628845 -6.0478973 9.104004m-8.46489 -42.88475l0 0c0.23104858 1.4185486 0.33799744 2.8584213 0.31932068 4.299652m-38.944214 -9.314995l0 0c0.78804016 -1.9836044 1.8316956 -3.830536 3.098465 -5.4832916m-32.0773 8.095985l0 0c0.32148743 -1.6392593 0.8255615 -3.2277832 1.5005951 -4.7289886m-35.51059 6.335663l0 0c1.9710083 1.2799301 3.7944794 2.820465 5.430313 4.5877686m-46.674828 31.469116l0 0c-0.4302597 -1.5787964 -0.74715424 -3.1928406 -0.94770813 -4.8270264" fill-rule="nonzero"></path><path stroke="#f3f3f3" stroke-width="1.0" stroke-linejoin="round" stroke-linecap="butt" d="m100.14542 140.66861c-1.4551315 -11.856674 3.322197 -23.594093 12.304787 -30.231659c8.982597 -6.637558 20.595116 -7.0111923 29.909966 -0.96234894l0 0c3.2994232 -6.894455 9.338547 -11.654617 16.290558 -12.840576c6.9520264 -1.1859512 14.000351 1.3416061 19.012909 6.8181l0 0c2.8107758 -6.250847 8.3298645 -10.450623 14.598785 -11.109009c6.2689056 -0.65838623 12.400421 2.3178024 16.21872 7.8724365l0 0c5.078186 -6.625496 13.157654 -9.41507 20.742386 -7.161682c7.584732 2.253395 13.3124695 9.145035 14.704788 17.692894l0 0c6.2213593 1.8817062 11.40361 6.665184 14.207855 13.11454c2.8042297 6.4493637 2.9553528 13.931953 0.41436768 20.514519l0 0c6.1266785 8.841095 7.5599365 20.621872 3.7648926 30.945877c-3.795044 10.324005 -12.248184 17.640152 -22.20485 19.21814c-0.07017517 9.689789 -4.8626404 18.580994 -12.530136 23.246506c-7.667511 4.665512 -17.012726 4.3767853 -24.433517 -0.7548981c-3.160904 11.605148 -12.057999 20.14412 -22.847336 21.92772c-10.789322 1.7835999 -21.536682 -3.5079346 -27.598755 -13.588425c-7.4308014 4.968643 -16.347168 6.3999634 -24.737724 3.9710999c-8.390564 -2.4288788 -15.548523 -8.513336 -19.859169 -16.880829l0 0c-7.5932846 0.98532104 -14.934959 -3.3769531 -18.381401 -10.921829c-3.4464493 -7.5448914 -2.264 -16.66629 2.960495 -22.83731l0 0c-6.773773 -4.420624 -10.230171 -13.192657 -8.566818 -21.741821c1.663353 -8.549164 8.069542 -14.938171 15.877975 -15.835403z" fill-rule="nonzero"></path><path stroke="#f3f3f3" stroke-width="1.0" stroke-linejoin="round" stroke-linecap="butt" d="m140.73288 257.60104c0 2.261322 -1.8331604 4.0944824 -4.0944824 4.0944824c-2.261322 0 -4.0944824 -1.8331604 -4.0944824 -4.0944824c0 -2.261322 1.8331604 -4.0944824 4.0944824 -4.0944824c2.261322 0 4.0944824 1.8331604 4.0944824 4.0944824z" fill-rule="nonzero"></path><path stroke="#f3f3f3" stroke-width="1.0" stroke-linejoin="round" stroke-linecap="butt" d="m146.82294 252.72495c0 4.522644 -3.666336 8.188965 -8.18898 8.188965c-4.522644 0 -8.18898 -3.6663208 -8.18898 -8.188965c0 -4.522644 3.666336 -8.18898 8.18898 -8.18898c4.522644 0 8.18898 3.666336 8.18898 8.18898z" fill-rule="nonzero"></path><path stroke="#f3f3f3" stroke-width="1.0" stroke-linejoin="round" stroke-linecap="butt" d="m156.01465 240.26999c0 6.783966 -5.4994965 12.283463 -12.283463 12.283463c-6.783966 0 -12.283463 -5.4994965 -12.283463 -12.283463c0 -6.783966 5.4994965 -12.283463 12.283463 -12.283463c6.783966 0 12.283463 5.4994965 12.283463 12.283463z" fill-rule="nonzero"></path><path stroke="#f3f3f3" stroke-width="1.0" stroke-linejoin="round" stroke-linecap="butt" d="m103.45879 180.84167l0 0c-3.6931458 0.32055664 -7.385887 -0.6257477 -10.58242 -2.7118378m19.919289 32.388687c-1.4850845 0.6554718 -3.0417786 1.0918732 -4.629936 1.2979584m44.524673 12.961914l0 0c-1.1169739 -1.8573761 -2.0521545 -3.842163 -2.789627 -5.9205017m54.37845 -8.842987c-0.1642456 2.2030334 -0.5376129 4.3805847 -1.1138763 6.4963226m23.262375 -46.634995l0 0c8.372955 4.517929 13.656845 13.963379 13.582138 24.279343m18.4552 -50.138504c-1.3559875 3.512741 -3.426056 6.628845 -6.0478973 9.104004m-8.46489 -42.88475l0 0c0.23104858 1.4185486 0.33799744 2.8584213 0.31932068 4.299652m-38.944214 -9.314995l0 0c0.78804016 -1.9836044 1.8316956 -3.830536 3.098465 -5.4832916m-32.0773 8.095985l0 0c0.32148743 -1.6392593 0.8255615 -3.2277832 1.5005951 -4.7289886m-35.51059 6.335663l0 0c1.9710083 1.2799301 3.7944794 2.820465 5.430313 4.5877686m-46.674828 31.469116l0 0c-0.4302597 -1.5787964 -0.74715424 -3.1928406 -0.94770813 -4.8270264" fill-rule="nonzero"></path></g></svg>

