<?xml version="1.0" standalone="yes"?>

<svg version="1.1" viewBox="0.0 0.0 352.21522309711287 341.1128608923884" fill="none" stroke="none" stroke-linecap="square" stroke-miterlimit="10" xmlns="http://www.w3.org/2000/svg" xmlns:xlink="http://www.w3.org/1999/xlink"><clipPath id="p.0"><path d="m0 0l352.2152 0l0 341.11285l-352.2152 0l0 -341.11285z" clip-rule="nonzero"></path></clipPath><g clip-path="url(#p.0)"><path fill="#000000" fill-opacity="0.0" d="m0 0l352.2152 0l0 341.11285l-352.2152 0z" fill-rule="nonzero"></path><path fill="#000000" fill-opacity="0.0" d="m38.986877 171.6798l270.70865 0l0 137.5118l-270.70865 0z" fill-rule="nonzero"></path><path stroke="#000000" stroke-width="16.0" stroke-linejoin="round" stroke-linecap="butt" d="m38.986877 171.6798l270.70865 0l0 137.5118l-270.70865 0z" fill-rule="nonzero"></path><path fill="#000000" fill-opacity="0.0" d="m81.50656 63.317585l196.28348 0l0 224.66142l-196.28348 0z" fill-rule="nonzero"></path><path fill="#ffffff" d="m103.41207 80.02362l130.26773 0l0 137.51181l-130.26773 0z" fill-rule="nonzero"></path><path stroke="#ffffff" stroke-width="1.0" stroke-linejoin="round" stroke-linecap="butt" d="m103.41207 80.02362l130.26773 0l0 137.51181l-130.26773 0z" fill-rule="nonzero"></path><path fill="#000000" d="m105.761154 112.931755l65.81102 -65.81102l65.811035 65.81102l-32.905518 0l0 148.04724l-65.81102 0l0 -148.04724z" fill-rule="nonzero"></path><path stroke="#000000" stroke-width="1.0" stroke-linejoin="round" stroke-linecap="butt" d="m105.761154 112.931755l65.81102 -65.81102l65.811035 65.81102l-32.905518 0l0 148.04724l-65.81102 0l0 -148.04724z" fill-rule="nonzero"></path></g></svg>

